<svg width="563" height="60" viewBox="0 0 563 60" fill="none" xmlns="http://www.w3.org/2000/svg">
<path d="M8.5332 12.127H3.44727L3.41992 9.47461H7.78125C8.52865 9.47461 9.15299 9.36979 9.6543 9.16016C10.1556 8.95052 10.5339 8.64518 10.7891 8.24414C11.0534 7.8431 11.1855 7.35547 11.1855 6.78125C11.1855 6.14323 11.0625 5.6237 10.8164 5.22266C10.5794 4.82161 10.2057 4.52995 9.69531 4.34766C9.1849 4.15625 8.53776 4.06055 7.75391 4.06055H4.66406V21H0.904297V1.09375H7.75391C8.88411 1.09375 9.89128 1.20312 10.7754 1.42188C11.6686 1.63151 12.4251 1.95964 13.0449 2.40625C13.6647 2.85286 14.1341 3.41341 14.4531 4.08789C14.7812 4.76237 14.9453 5.56445 14.9453 6.49414C14.9453 7.31445 14.7539 8.07096 14.3711 8.76367C13.9974 9.44727 13.4186 10.0033 12.6348 10.4316C11.86 10.86 10.8757 11.1061 9.68164 11.1699L8.5332 12.127ZM8.36914 21H2.33984L3.91211 18.0469H8.36914C9.11654 18.0469 9.73177 17.9238 10.2148 17.6777C10.707 17.4316 11.0716 17.0944 11.3086 16.666C11.5547 16.2285 11.6777 15.7272 11.6777 15.1621C11.6777 14.5423 11.5684 14.0046 11.3496 13.5488C11.14 13.0931 10.8027 12.7422 10.3379 12.4961C9.88216 12.25 9.2806 12.127 8.5332 12.127H4.62305L4.65039 9.47461H9.62695L10.4883 10.5C11.6367 10.5091 12.571 10.737 13.291 11.1836C14.0202 11.6302 14.5579 12.2044 14.9043 12.9062C15.2507 13.6081 15.4238 14.3646 15.4238 15.1758C15.4238 16.4518 15.1458 17.5228 14.5898 18.3887C14.043 19.2546 13.2409 19.9062 12.1836 20.3438C11.1354 20.7812 9.86393 21 8.36914 21ZM22.0137 9.22852V21H18.4043V6.20703H21.8223L22.0137 9.22852ZM26.5117 6.11133L26.457 9.47461C26.2565 9.43815 26.0286 9.41081 25.7734 9.39258C25.5273 9.37435 25.2949 9.36523 25.0762 9.36523C24.5202 9.36523 24.0326 9.44271 23.6133 9.59766C23.194 9.74349 22.8431 9.95768 22.5605 10.2402C22.2871 10.5228 22.0775 10.8691 21.9316 11.2793C21.7858 11.6803 21.7038 12.1361 21.6855 12.6465L20.9062 12.5508C20.9062 11.612 21.002 10.7415 21.1934 9.93945C21.3848 9.13737 21.6628 8.43555 22.0273 7.83398C22.3919 7.23242 22.8477 6.76758 23.3945 6.43945C23.9505 6.10221 24.5885 5.93359 25.3086 5.93359C25.5091 5.93359 25.7233 5.95182 25.9512 5.98828C26.1882 6.01562 26.375 6.05664 26.5117 6.11133ZM32.3223 6.20703V21H28.6992V6.20703H32.3223ZM28.4531 2.33789C28.4531 1.80013 28.6354 1.35352 29 0.998047C29.3737 0.642578 29.875 0.464844 30.5039 0.464844C31.1328 0.464844 31.6296 0.642578 31.9941 0.998047C32.3678 1.35352 32.5547 1.80013 32.5547 2.33789C32.5547 2.86654 32.3678 3.30859 31.9941 3.66406C31.6296 4.01953 31.1328 4.19727 30.5039 4.19727C29.875 4.19727 29.3737 4.01953 29 3.66406C28.6354 3.30859 28.4531 2.86654 28.4531 2.33789ZM39.3086 9.36523V21H35.6992V6.20703H39.0898L39.3086 9.36523ZM38.7344 13.0703H37.668C37.6771 11.9948 37.8229 11.0195 38.1055 10.1445C38.388 9.26953 38.7845 8.51758 39.2949 7.88867C39.8145 7.25977 40.4297 6.77669 41.1406 6.43945C41.8516 6.10221 42.6445 5.93359 43.5195 5.93359C44.2305 5.93359 44.873 6.03385 45.4473 6.23438C46.0215 6.4349 46.5137 6.75391 46.9238 7.19141C47.3431 7.62891 47.6621 8.20312 47.8809 8.91406C48.1087 9.61589 48.2227 10.4818 48.2227 11.5117V21H44.5859V11.4844C44.5859 10.8099 44.4857 10.2767 44.2852 9.88477C44.0938 9.49284 43.8112 9.21484 43.4375 9.05078C43.0729 8.88672 42.6217 8.80469 42.084 8.80469C41.528 8.80469 41.0404 8.91862 40.6211 9.14648C40.2109 9.36523 39.8646 9.67057 39.582 10.0625C39.3086 10.4544 39.099 10.9056 38.9531 11.416C38.8073 11.9264 38.7344 12.4779 38.7344 13.0703ZM60.8145 6.20703H64.0957V20.5488C64.0957 21.8887 63.804 23.0234 63.2207 23.9531C62.6465 24.8919 61.8398 25.6029 60.8008 26.0859C59.7617 26.5781 58.554 26.8242 57.1777 26.8242C56.5853 26.8242 55.9427 26.7422 55.25 26.5781C54.5664 26.4141 53.9056 26.1543 53.2676 25.7988C52.6387 25.4525 52.1146 25.0013 51.6953 24.4453L53.3223 22.3125C53.8145 22.8867 54.3704 23.3197 54.9902 23.6113C55.61 23.9121 56.2799 24.0625 57 24.0625C57.7292 24.0625 58.349 23.9258 58.8594 23.6523C59.3789 23.388 59.7754 22.9961 60.0488 22.4766C60.3314 21.9661 60.4727 21.3372 60.4727 20.5898V9.58398L60.8145 6.20703ZM50.8203 13.7812V13.4941C50.8203 12.3639 50.957 11.3385 51.2305 10.418C51.5039 9.48828 51.8958 8.69076 52.4062 8.02539C52.9258 7.36003 53.5501 6.84505 54.2793 6.48047C55.0176 6.11589 55.847 5.93359 56.7676 5.93359C57.7428 5.93359 58.5632 6.11133 59.2285 6.4668C59.903 6.82227 60.459 7.32812 60.8965 7.98438C61.3431 8.64062 61.6895 9.41992 61.9355 10.3223C62.1908 11.2155 62.3867 12.1999 62.5234 13.2754V14.0547C62.3958 15.1029 62.1908 16.0645 61.9082 16.9395C61.6348 17.8145 61.2702 18.5801 60.8145 19.2363C60.3587 19.8835 59.7936 20.3848 59.1191 20.7402C58.4447 21.0957 57.6517 21.2734 56.7402 21.2734C55.8288 21.2734 55.0085 21.0866 54.2793 20.7129C53.5501 20.3392 52.9258 19.8151 52.4062 19.1406C51.8958 18.4661 51.5039 17.6732 51.2305 16.7617C50.957 15.8503 50.8203 14.8568 50.8203 13.7812ZM54.4297 13.4941V13.7812C54.4297 14.4193 54.4935 15.0163 54.6211 15.5723C54.7487 16.1283 54.9447 16.6204 55.209 17.0488C55.4733 17.4681 55.806 17.7962 56.207 18.0332C56.6081 18.2702 57.0866 18.3887 57.6426 18.3887C58.39 18.3887 59.0007 18.2337 59.4746 17.9238C59.9577 17.6048 60.3223 17.1719 60.5684 16.625C60.8236 16.069 60.9876 15.4447 61.0605 14.752V12.6055C61.015 12.0586 60.9147 11.5527 60.7598 11.0879C60.6139 10.623 60.4089 10.222 60.1445 9.88477C59.8802 9.54753 59.543 9.2832 59.1328 9.0918C58.7227 8.90039 58.235 8.80469 57.6699 8.80469C57.123 8.80469 56.6445 8.92773 56.2344 9.17383C55.8242 9.41081 55.487 9.74349 55.2227 10.1719C54.9583 10.6003 54.7578 11.097 54.6211 11.6621C54.4935 12.2272 54.4297 12.8379 54.4297 13.4941ZM71.1777 6.20703V21H67.5547V6.20703H71.1777ZM67.3086 2.33789C67.3086 1.80013 67.4909 1.35352 67.8555 0.998047C68.2292 0.642578 68.7305 0.464844 69.3594 0.464844C69.9883 0.464844 70.485 0.642578 70.8496 0.998047C71.2233 1.35352 71.4102 1.80013 71.4102 2.33789C71.4102 2.86654 71.2233 3.30859 70.8496 3.66406C70.485 4.01953 69.9883 4.19727 69.3594 4.19727C68.7305 4.19727 68.2292 4.01953 67.8555 3.66406C67.4909 3.30859 67.3086 2.86654 67.3086 2.33789ZM78.1641 9.36523V21H74.5547V6.20703H77.9453L78.1641 9.36523ZM77.5898 13.0703H76.5234C76.5326 11.9948 76.6784 11.0195 76.9609 10.1445C77.2435 9.26953 77.64 8.51758 78.1504 7.88867C78.6699 7.25977 79.2852 6.77669 79.9961 6.43945C80.707 6.10221 81.5 5.93359 82.375 5.93359C83.0859 5.93359 83.7285 6.03385 84.3027 6.23438C84.877 6.4349 85.3691 6.75391 85.7793 7.19141C86.1986 7.62891 86.5176 8.20312 86.7363 8.91406C86.9642 9.61589 87.0781 10.4818 87.0781 11.5117V21H83.4414V11.4844C83.4414 10.8099 83.3411 10.2767 83.1406 9.88477C82.9492 9.49284 82.6667 9.21484 82.293 9.05078C81.9284 8.88672 81.4772 8.80469 80.9395 8.80469C80.3835 8.80469 79.8958 8.91862 79.4766 9.14648C79.0664 9.36523 78.7201 9.67057 78.4375 10.0625C78.1641 10.4544 77.9544 10.9056 77.8086 11.416C77.6628 11.9264 77.5898 12.4779 77.5898 13.0703ZM99.6699 6.20703H102.951V20.5488C102.951 21.8887 102.66 23.0234 102.076 23.9531C101.502 24.8919 100.695 25.6029 99.6562 26.0859C98.6172 26.5781 97.4095 26.8242 96.0332 26.8242C95.4408 26.8242 94.7982 26.7422 94.1055 26.5781C93.4219 26.4141 92.7611 26.1543 92.123 25.7988C91.4941 25.4525 90.9701 25.0013 90.5508 24.4453L92.1777 22.3125C92.6699 22.8867 93.2259 23.3197 93.8457 23.6113C94.4655 23.9121 95.1354 24.0625 95.8555 24.0625C96.5846 24.0625 97.2044 23.9258 97.7148 23.6523C98.2344 23.388 98.6309 22.9961 98.9043 22.4766C99.1868 21.9661 99.3281 21.3372 99.3281 20.5898V9.58398L99.6699 6.20703ZM89.6758 13.7812V13.4941C89.6758 12.3639 89.8125 11.3385 90.0859 10.418C90.3594 9.48828 90.7513 8.69076 91.2617 8.02539C91.7812 7.36003 92.4056 6.84505 93.1348 6.48047C93.873 6.11589 94.7025 5.93359 95.623 5.93359C96.5983 5.93359 97.4186 6.11133 98.084 6.4668C98.7585 6.82227 99.3145 7.32812 99.752 7.98438C100.199 8.64062 100.545 9.41992 100.791 10.3223C101.046 11.2155 101.242 12.1999 101.379 13.2754V14.0547C101.251 15.1029 101.046 16.0645 100.764 16.9395C100.49 17.8145 100.126 18.5801 99.6699 19.2363C99.2142 19.8835 98.6491 20.3848 97.9746 20.7402C97.3001 21.0957 96.5072 21.2734 95.5957 21.2734C94.6842 21.2734 93.8639 21.0866 93.1348 20.7129C92.4056 20.3392 91.7812 19.8151 91.2617 19.1406C90.7513 18.4661 90.3594 17.6732 90.0859 16.7617C89.8125 15.8503 89.6758 14.8568 89.6758 13.7812ZM93.2852 13.4941V13.7812C93.2852 14.4193 93.349 15.0163 93.4766 15.5723C93.6042 16.1283 93.8001 16.6204 94.0645 17.0488C94.3288 17.4681 94.6615 17.7962 95.0625 18.0332C95.4635 18.2702 95.9421 18.3887 96.498 18.3887C97.2454 18.3887 97.8561 18.2337 98.3301 17.9238C98.8132 17.6048 99.1777 17.1719 99.4238 16.625C99.679 16.069 99.8431 15.4447 99.916 14.752V12.6055C99.8704 12.0586 99.7702 11.5527 99.6152 11.0879C99.4694 10.623 99.2643 10.222 99 9.88477C98.7357 9.54753 98.3984 9.2832 97.9883 9.0918C97.5781 8.90039 97.0905 8.80469 96.5254 8.80469C95.9785 8.80469 95.5 8.92773 95.0898 9.17383C94.6797 9.41081 94.3424 9.74349 94.0781 10.1719C93.8138 10.6003 93.6133 11.097 93.4766 11.6621C93.349 12.2272 93.2852 12.8379 93.2852 13.4941ZM121.312 1.09375V21H117.566V1.09375H121.312ZM127.492 1.09375V4.06055H111.455V1.09375H127.492ZM132.373 9.22852V21H128.764V6.20703H132.182L132.373 9.22852ZM136.871 6.11133L136.816 9.47461C136.616 9.43815 136.388 9.41081 136.133 9.39258C135.887 9.37435 135.654 9.36523 135.436 9.36523C134.88 9.36523 134.392 9.44271 133.973 9.59766C133.553 9.74349 133.202 9.95768 132.92 10.2402C132.646 10.5228 132.437 10.8691 132.291 11.2793C132.145 11.6803 132.063 12.1361 132.045 12.6465L131.266 12.5508C131.266 11.612 131.361 10.7415 131.553 9.93945C131.744 9.13737 132.022 8.43555 132.387 7.83398C132.751 7.23242 133.207 6.76758 133.754 6.43945C134.31 6.10221 134.948 5.93359 135.668 5.93359C135.868 5.93359 136.083 5.95182 136.311 5.98828C136.548 6.01562 136.734 6.05664 136.871 6.11133ZM146.537 17.8555V11.0332C146.537 10.5319 146.451 10.099 146.277 9.73438C146.104 9.36979 145.84 9.08724 145.484 8.88672C145.129 8.6862 144.678 8.58594 144.131 8.58594C143.648 8.58594 143.224 8.66797 142.859 8.83203C142.504 8.99609 142.23 9.22852 142.039 9.5293C141.848 9.82096 141.752 10.1582 141.752 10.541H138.129C138.129 9.93034 138.275 9.35156 138.566 8.80469C138.858 8.2487 139.273 7.75651 139.811 7.32812C140.357 6.89062 141.009 6.54883 141.766 6.30273C142.531 6.05664 143.388 5.93359 144.336 5.93359C145.457 5.93359 146.455 6.125 147.33 6.50781C148.214 6.88151 148.907 7.44661 149.408 8.20312C149.919 8.95964 150.174 9.91211 150.174 11.0605V17.5137C150.174 18.252 150.219 18.8854 150.311 19.4141C150.411 19.9336 150.557 20.3848 150.748 20.7676V21H147.07C146.897 20.6263 146.765 20.1523 146.674 19.5781C146.583 18.9948 146.537 18.4206 146.537 17.8555ZM147.043 11.9902L147.07 14.1367H144.787C144.222 14.1367 143.725 14.196 143.297 14.3145C142.868 14.4238 142.518 14.5879 142.244 14.8066C141.971 15.0163 141.766 15.2715 141.629 15.5723C141.492 15.8639 141.424 16.1966 141.424 16.5703C141.424 16.9349 141.506 17.263 141.67 17.5547C141.843 17.8464 142.089 18.0788 142.408 18.252C142.736 18.416 143.119 18.498 143.557 18.498C144.195 18.498 144.751 18.3704 145.225 18.1152C145.699 17.8509 146.068 17.5319 146.332 17.1582C146.596 16.7845 146.738 16.429 146.756 16.0918L147.795 17.6504C147.667 18.0241 147.476 18.4206 147.221 18.8398C146.965 19.2591 146.637 19.651 146.236 20.0156C145.835 20.3802 145.352 20.681 144.787 20.918C144.222 21.1549 143.566 21.2734 142.818 21.2734C141.861 21.2734 141.005 21.082 140.248 20.6992C139.492 20.3164 138.895 19.7923 138.457 19.127C138.02 18.4616 137.801 17.7051 137.801 16.8574C137.801 16.0736 137.947 15.3809 138.238 14.7793C138.53 14.1777 138.963 13.6719 139.537 13.2617C140.111 12.8424 140.822 12.528 141.67 12.3184C142.527 12.0996 143.507 11.9902 144.609 11.9902H147.043ZM156.969 9.36523V21H153.359V6.20703H156.75L156.969 9.36523ZM156.395 13.0703H155.328C155.337 11.9948 155.483 11.0195 155.766 10.1445C156.048 9.26953 156.445 8.51758 156.955 7.88867C157.475 7.25977 158.09 6.77669 158.801 6.43945C159.512 6.10221 160.305 5.93359 161.18 5.93359C161.891 5.93359 162.533 6.03385 163.107 6.23438C163.682 6.4349 164.174 6.75391 164.584 7.19141C165.003 7.62891 165.322 8.20312 165.541 8.91406C165.769 9.61589 165.883 10.4818 165.883 11.5117V21H162.246V11.4844C162.246 10.8099 162.146 10.2767 161.945 9.88477C161.754 9.49284 161.471 9.21484 161.098 9.05078C160.733 8.88672 160.282 8.80469 159.744 8.80469C159.188 8.80469 158.701 8.91862 158.281 9.14648C157.871 9.36523 157.525 9.67057 157.242 10.0625C156.969 10.4544 156.759 10.9056 156.613 11.416C156.467 11.9264 156.395 12.4779 156.395 13.0703ZM177.203 16.9531C177.203 16.6432 177.121 16.3652 176.957 16.1191C176.793 15.873 176.483 15.6497 176.027 15.4492C175.581 15.2396 174.924 15.0436 174.059 14.8613C173.293 14.6973 172.587 14.4922 171.939 14.2461C171.292 14 170.736 13.7038 170.271 13.3574C169.807 13.002 169.442 12.5872 169.178 12.1133C168.923 11.6302 168.795 11.0742 168.795 10.4453C168.795 9.83464 168.927 9.26042 169.191 8.72266C169.456 8.17578 169.839 7.69727 170.34 7.28711C170.841 6.86784 171.452 6.53971 172.172 6.30273C172.892 6.05664 173.703 5.93359 174.605 5.93359C175.863 5.93359 176.943 6.13867 177.846 6.54883C178.757 6.95898 179.454 7.52409 179.938 8.24414C180.421 8.95508 180.662 9.75716 180.662 10.6504H177.053C177.053 10.2585 176.962 9.90299 176.779 9.58398C176.606 9.26497 176.337 9.00977 175.973 8.81836C175.608 8.61784 175.148 8.51758 174.592 8.51758C174.09 8.51758 173.667 8.59961 173.32 8.76367C172.983 8.92773 172.728 9.14193 172.555 9.40625C172.382 9.67057 172.295 9.96224 172.295 10.2812C172.295 10.5182 172.34 10.7324 172.432 10.9238C172.532 11.1061 172.691 11.2747 172.91 11.4297C173.129 11.5846 173.425 11.7259 173.799 11.8535C174.182 11.9811 174.651 12.1042 175.207 12.2227C176.31 12.4414 177.271 12.7331 178.092 13.0977C178.921 13.4531 179.568 13.9271 180.033 14.5195C180.498 15.112 180.73 15.8685 180.73 16.7891C180.73 17.4453 180.589 18.0469 180.307 18.5938C180.024 19.1315 179.614 19.6009 179.076 20.002C178.538 20.403 177.896 20.7174 177.148 20.9453C176.401 21.1641 175.558 21.2734 174.619 21.2734C173.261 21.2734 172.113 21.0319 171.174 20.5488C170.235 20.0566 169.524 19.4368 169.041 18.6895C168.558 17.9329 168.316 17.1491 168.316 16.3379H171.775C171.803 16.9121 171.958 17.3724 172.24 17.7188C172.523 18.0651 172.878 18.3158 173.307 18.4707C173.744 18.6165 174.204 18.6895 174.688 18.6895C175.234 18.6895 175.695 18.6165 176.068 18.4707C176.442 18.3158 176.725 18.1107 176.916 17.8555C177.107 17.5911 177.203 17.2904 177.203 16.9531ZM187.088 9.05078V26.6875H183.465V6.20703H186.814L187.088 9.05078ZM196.59 13.4531V13.7402C196.59 14.8158 196.462 15.8138 196.207 16.7344C195.961 17.6458 195.596 18.4434 195.113 19.127C194.63 19.8014 194.029 20.3301 193.309 20.7129C192.598 21.0866 191.777 21.2734 190.848 21.2734C189.936 21.2734 189.143 21.1003 188.469 20.7539C187.794 20.3984 187.225 19.8971 186.76 19.25C186.295 18.6029 185.921 17.8509 185.639 16.9941C185.365 16.1283 185.16 15.1849 185.023 14.1641V13.248C185.16 12.1634 185.365 11.179 185.639 10.2949C185.921 9.40169 186.295 8.63151 186.76 7.98438C187.225 7.32812 187.79 6.82227 188.455 6.4668C189.13 6.11133 189.918 5.93359 190.82 5.93359C191.759 5.93359 192.584 6.11133 193.295 6.4668C194.015 6.82227 194.621 7.33268 195.113 7.99805C195.605 8.66341 195.975 9.45638 196.221 10.377C196.467 11.2975 196.59 12.3229 196.59 13.4531ZM192.967 13.7402V13.4531C192.967 12.7969 192.908 12.1908 192.789 11.6348C192.671 11.0697 192.488 10.5775 192.242 10.1582C191.996 9.72982 191.677 9.39714 191.285 9.16016C190.893 8.92318 190.419 8.80469 189.863 8.80469C189.307 8.80469 188.829 8.89583 188.428 9.07812C188.027 9.26042 187.699 9.52018 187.443 9.85742C187.188 10.1947 186.988 10.5957 186.842 11.0605C186.705 11.5163 186.614 12.0221 186.568 12.5781V14.8477C186.65 15.5221 186.81 16.1283 187.047 16.666C187.284 17.2038 187.63 17.6322 188.086 17.9512C188.551 18.2702 189.152 18.4297 189.891 18.4297C190.447 18.4297 190.921 18.3066 191.312 18.0605C191.704 17.8145 192.023 17.4772 192.27 17.0488C192.516 16.6113 192.693 16.11 192.803 15.5449C192.912 14.9798 192.967 14.3783 192.967 13.7402ZM207.377 17.8555V11.0332C207.377 10.5319 207.29 10.099 207.117 9.73438C206.944 9.36979 206.68 9.08724 206.324 8.88672C205.969 8.6862 205.518 8.58594 204.971 8.58594C204.488 8.58594 204.064 8.66797 203.699 8.83203C203.344 8.99609 203.07 9.22852 202.879 9.5293C202.688 9.82096 202.592 10.1582 202.592 10.541H198.969C198.969 9.93034 199.115 9.35156 199.406 8.80469C199.698 8.2487 200.113 7.75651 200.65 7.32812C201.197 6.89062 201.849 6.54883 202.605 6.30273C203.371 6.05664 204.228 5.93359 205.176 5.93359C206.297 5.93359 207.295 6.125 208.17 6.50781C209.054 6.88151 209.747 7.44661 210.248 8.20312C210.758 8.95964 211.014 9.91211 211.014 11.0605V17.5137C211.014 18.252 211.059 18.8854 211.15 19.4141C211.251 19.9336 211.396 20.3848 211.588 20.7676V21H207.91C207.737 20.6263 207.605 20.1523 207.514 19.5781C207.423 18.9948 207.377 18.4206 207.377 17.8555ZM207.883 11.9902L207.91 14.1367H205.627C205.062 14.1367 204.565 14.196 204.137 14.3145C203.708 14.4238 203.357 14.5879 203.084 14.8066C202.811 15.0163 202.605 15.2715 202.469 15.5723C202.332 15.8639 202.264 16.1966 202.264 16.5703C202.264 16.9349 202.346 17.263 202.51 17.5547C202.683 17.8464 202.929 18.0788 203.248 18.252C203.576 18.416 203.959 18.498 204.396 18.498C205.035 18.498 205.59 18.3704 206.064 18.1152C206.538 17.8509 206.908 17.5319 207.172 17.1582C207.436 16.7845 207.577 16.429 207.596 16.0918L208.635 17.6504C208.507 18.0241 208.316 18.4206 208.061 18.8398C207.805 19.2591 207.477 19.651 207.076 20.0156C206.675 20.3802 206.192 20.681 205.627 20.918C205.062 21.1549 204.406 21.2734 203.658 21.2734C202.701 21.2734 201.844 21.082 201.088 20.6992C200.331 20.3164 199.734 19.7923 199.297 19.127C198.859 18.4616 198.641 17.7051 198.641 16.8574C198.641 16.0736 198.786 15.3809 199.078 14.7793C199.37 14.1777 199.803 13.6719 200.377 13.2617C200.951 12.8424 201.662 12.528 202.51 12.3184C203.367 12.0996 204.346 11.9902 205.449 11.9902H207.883ZM217.877 9.22852V21H214.268V6.20703H217.686L217.877 9.22852ZM222.375 6.11133L222.32 9.47461C222.12 9.43815 221.892 9.41081 221.637 9.39258C221.391 9.37435 221.158 9.36523 220.939 9.36523C220.383 9.36523 219.896 9.44271 219.477 9.59766C219.057 9.74349 218.706 9.95768 218.424 10.2402C218.15 10.5228 217.941 10.8691 217.795 11.2793C217.649 11.6803 217.567 12.1361 217.549 12.6465L216.77 12.5508C216.77 11.612 216.865 10.7415 217.057 9.93945C217.248 9.13737 217.526 8.43555 217.891 7.83398C218.255 7.23242 218.711 6.76758 219.258 6.43945C219.814 6.10221 220.452 5.93359 221.172 5.93359C221.372 5.93359 221.587 5.95182 221.814 5.98828C222.051 6.01562 222.238 6.05664 222.375 6.11133ZM230.729 21.2734C229.607 21.2734 228.6 21.0911 227.707 20.7266C226.814 20.362 226.053 19.8561 225.424 19.209C224.804 18.5527 224.326 17.7917 223.988 16.9258C223.66 16.0508 223.496 15.112 223.496 14.1094V13.5625C223.496 12.4232 223.66 11.3887 223.988 10.459C224.316 9.52018 224.781 8.71354 225.383 8.03906C225.984 7.36458 226.704 6.84505 227.543 6.48047C228.382 6.11589 229.307 5.93359 230.318 5.93359C231.367 5.93359 232.292 6.11133 233.094 6.4668C233.896 6.81315 234.566 7.30534 235.104 7.94336C235.641 8.58138 236.047 9.34701 236.32 10.2402C236.594 11.1243 236.73 12.1042 236.73 13.1797V14.6973H225.137V12.209H233.176V11.9355C233.158 11.3613 233.048 10.8372 232.848 10.3633C232.647 9.88021 232.337 9.4974 231.918 9.21484C231.499 8.92318 230.956 8.77734 230.291 8.77734C229.753 8.77734 229.284 8.89583 228.883 9.13281C228.491 9.36068 228.163 9.6888 227.898 10.1172C227.643 10.5365 227.452 11.0378 227.324 11.6211C227.197 12.2044 227.133 12.8516 227.133 13.5625V14.1094C227.133 14.7292 227.215 15.3034 227.379 15.832C227.552 16.3607 227.803 16.821 228.131 17.2129C228.468 17.5957 228.869 17.8965 229.334 18.1152C229.808 18.3249 230.346 18.4297 230.947 18.4297C231.704 18.4297 232.387 18.2839 232.998 17.9922C233.618 17.6914 234.156 17.2493 234.611 16.666L236.43 18.5527C236.12 19.0085 235.701 19.446 235.172 19.8652C234.652 20.2845 234.023 20.6263 233.285 20.8906C232.547 21.1458 231.695 21.2734 230.729 21.2734ZM242.691 9.36523V21H239.082V6.20703H242.473L242.691 9.36523ZM242.117 13.0703H241.051C241.06 11.9948 241.206 11.0195 241.488 10.1445C241.771 9.26953 242.167 8.51758 242.678 7.88867C243.197 7.25977 243.812 6.77669 244.523 6.43945C245.234 6.10221 246.027 5.93359 246.902 5.93359C247.613 5.93359 248.256 6.03385 248.83 6.23438C249.404 6.4349 249.896 6.75391 250.307 7.19141C250.726 7.62891 251.045 8.20312 251.264 8.91406C251.492 9.61589 251.605 10.4818 251.605 11.5117V21H247.969V11.4844C247.969 10.8099 247.868 10.2767 247.668 9.88477C247.477 9.49284 247.194 9.21484 246.82 9.05078C246.456 8.88672 246.005 8.80469 245.467 8.80469C244.911 8.80469 244.423 8.91862 244.004 9.14648C243.594 9.36523 243.247 9.67057 242.965 10.0625C242.691 10.4544 242.482 10.9056 242.336 11.416C242.19 11.9264 242.117 12.4779 242.117 13.0703ZM260.861 18.4297C261.372 18.4297 261.827 18.3294 262.229 18.1289C262.63 17.9284 262.949 17.6458 263.186 17.2812C263.432 16.9167 263.564 16.4928 263.582 16.0098H266.986C266.968 17.0124 266.686 17.9102 266.139 18.7031C265.592 19.4961 264.863 20.125 263.951 20.5898C263.049 21.0456 262.037 21.2734 260.916 21.2734C259.777 21.2734 258.783 21.082 257.936 20.6992C257.088 20.3164 256.382 19.7832 255.816 19.0996C255.26 18.416 254.841 17.623 254.559 16.7207C254.285 15.8184 254.148 14.8522 254.148 13.8223V13.3848C254.148 12.3548 254.285 11.3887 254.559 10.4863C254.841 9.58398 255.26 8.79102 255.816 8.10742C256.382 7.42383 257.088 6.89062 257.936 6.50781C258.783 6.125 259.772 5.93359 260.902 5.93359C262.096 5.93359 263.145 6.16602 264.047 6.63086C264.958 7.0957 265.669 7.75195 266.18 8.59961C266.699 9.44727 266.968 10.4453 266.986 11.5938H263.582C263.564 11.0651 263.445 10.5911 263.227 10.1719C263.008 9.7526 262.698 9.41536 262.297 9.16016C261.896 8.90495 261.408 8.77734 260.834 8.77734C260.223 8.77734 259.713 8.90495 259.303 9.16016C258.902 9.41536 258.587 9.76628 258.359 10.2129C258.141 10.6504 257.986 11.1426 257.895 11.6895C257.812 12.2272 257.771 12.7923 257.771 13.3848V13.8223C257.771 14.4238 257.812 14.998 257.895 15.5449C257.986 16.0918 258.141 16.584 258.359 17.0215C258.587 17.4499 258.902 17.7917 259.303 18.0469C259.713 18.3021 260.232 18.4297 260.861 18.4297ZM273.727 19.3594L277.691 6.20703H281.561L275.627 23.2422C275.49 23.6068 275.312 24.0033 275.094 24.4316C274.884 24.86 274.602 25.2656 274.246 25.6484C273.891 26.0404 273.444 26.3594 272.906 26.6055C272.378 26.8516 271.735 26.9746 270.979 26.9746C270.65 26.9746 270.359 26.9518 270.104 26.9062C269.848 26.8607 269.579 26.8014 269.297 26.7285V24.0215C269.388 24.0306 269.493 24.0352 269.611 24.0352C269.739 24.0443 269.848 24.0488 269.939 24.0488C270.468 24.0488 270.906 23.985 271.252 23.8574C271.598 23.7389 271.876 23.543 272.086 23.2695C272.305 23.0052 272.487 22.6589 272.633 22.2305L273.727 19.3594ZM271.771 6.20703L275.121 17.1035L275.709 20.918L273.221 21.3691L267.875 6.20703H271.771ZM298.473 4.11523L292.799 21H288.82L296.258 1.09375H298.801L298.473 4.11523ZM303.217 21L297.516 4.11523L297.174 1.09375H299.73L307.209 21H303.217ZM302.957 13.6035V16.5703H292.279V13.6035H302.957ZM312.172 9.36523V21H308.562V6.20703H311.953L312.172 9.36523ZM311.598 13.0703H310.531C310.54 11.9948 310.686 11.0195 310.969 10.1445C311.251 9.26953 311.648 8.51758 312.158 7.88867C312.678 7.25977 313.293 6.77669 314.004 6.43945C314.715 6.10221 315.508 5.93359 316.383 5.93359C317.094 5.93359 317.736 6.03385 318.311 6.23438C318.885 6.4349 319.377 6.75391 319.787 7.19141C320.206 7.62891 320.525 8.20312 320.744 8.91406C320.972 9.61589 321.086 10.4818 321.086 11.5117V21H317.449V11.4844C317.449 10.8099 317.349 10.2767 317.148 9.88477C316.957 9.49284 316.674 9.21484 316.301 9.05078C315.936 8.88672 315.485 8.80469 314.947 8.80469C314.391 8.80469 313.904 8.91862 313.484 9.14648C313.074 9.36523 312.728 9.67057 312.445 10.0625C312.172 10.4544 311.962 10.9056 311.816 11.416C311.671 11.9264 311.598 12.4779 311.598 13.0703ZM333.145 17.8555V0H336.781V21H333.5L333.145 17.8555ZM323.643 13.7812V13.4941C323.643 12.3639 323.77 11.3385 324.025 10.418C324.29 9.48828 324.673 8.69076 325.174 8.02539C325.675 7.36003 326.281 6.84505 326.992 6.48047C327.712 6.11589 328.528 5.93359 329.439 5.93359C330.324 5.93359 331.094 6.11133 331.75 6.4668C332.415 6.82227 332.98 7.32812 333.445 7.98438C333.919 8.64062 334.298 9.41992 334.58 10.3223C334.863 11.2155 335.068 12.1999 335.195 13.2754V14.0547C335.068 15.1029 334.863 16.0645 334.58 16.9395C334.298 17.8145 333.919 18.5801 333.445 19.2363C332.98 19.8835 332.415 20.3848 331.75 20.7402C331.085 21.0957 330.305 21.2734 329.412 21.2734C328.51 21.2734 327.699 21.0866 326.979 20.7129C326.268 20.3392 325.661 19.8151 325.16 19.1406C324.668 18.4661 324.29 17.6732 324.025 16.7617C323.77 15.8503 323.643 14.8568 323.643 13.7812ZM327.266 13.4941V13.7812C327.266 14.4193 327.32 15.0163 327.43 15.5723C327.539 16.1283 327.717 16.6204 327.963 17.0488C328.209 17.4681 328.523 17.7962 328.906 18.0332C329.298 18.2702 329.772 18.3887 330.328 18.3887C331.039 18.3887 331.622 18.2337 332.078 17.9238C332.543 17.6048 332.903 17.1719 333.158 16.625C333.413 16.069 333.577 15.4447 333.65 14.752V12.6055C333.614 12.0586 333.518 11.5527 333.363 11.0879C333.217 10.623 333.008 10.222 332.734 9.88477C332.47 9.54753 332.142 9.2832 331.75 9.0918C331.358 8.90039 330.893 8.80469 330.355 8.80469C329.799 8.80469 329.326 8.92773 328.934 9.17383C328.542 9.41081 328.223 9.74349 327.977 10.1719C327.73 10.6003 327.548 11.097 327.43 11.6621C327.32 12.2272 327.266 12.8379 327.266 13.4941ZM355.211 4.11523L349.537 21H345.559L352.996 1.09375H355.539L355.211 4.11523ZM359.955 21L354.254 4.11523L353.912 1.09375H356.469L363.947 21H359.955ZM359.695 13.6035V16.5703H349.018V13.6035H359.695ZM371.795 18.4297C372.305 18.4297 372.761 18.3294 373.162 18.1289C373.563 17.9284 373.882 17.6458 374.119 17.2812C374.365 16.9167 374.497 16.4928 374.516 16.0098H377.92C377.902 17.0124 377.619 17.9102 377.072 18.7031C376.525 19.4961 375.796 20.125 374.885 20.5898C373.982 21.0456 372.971 21.2734 371.85 21.2734C370.71 21.2734 369.717 21.082 368.869 20.6992C368.021 20.3164 367.315 19.7832 366.75 19.0996C366.194 18.416 365.775 17.623 365.492 16.7207C365.219 15.8184 365.082 14.8522 365.082 13.8223V13.3848C365.082 12.3548 365.219 11.3887 365.492 10.4863C365.775 9.58398 366.194 8.79102 366.75 8.10742C367.315 7.42383 368.021 6.89062 368.869 6.50781C369.717 6.125 370.706 5.93359 371.836 5.93359C373.03 5.93359 374.078 6.16602 374.98 6.63086C375.892 7.0957 376.603 7.75195 377.113 8.59961C377.633 9.44727 377.902 10.4453 377.92 11.5938H374.516C374.497 11.0651 374.379 10.5911 374.16 10.1719C373.941 9.7526 373.632 9.41536 373.23 9.16016C372.829 8.90495 372.342 8.77734 371.768 8.77734C371.157 8.77734 370.646 8.90495 370.236 9.16016C369.835 9.41536 369.521 9.76628 369.293 10.2129C369.074 10.6504 368.919 11.1426 368.828 11.6895C368.746 12.2272 368.705 12.7923 368.705 13.3848V13.8223C368.705 14.4238 368.746 14.998 368.828 15.5449C368.919 16.0918 369.074 16.584 369.293 17.0215C369.521 17.4499 369.835 17.7917 370.236 18.0469C370.646 18.3021 371.166 18.4297 371.795 18.4297ZM386.396 18.4297C386.907 18.4297 387.363 18.3294 387.764 18.1289C388.165 17.9284 388.484 17.6458 388.721 17.2812C388.967 16.9167 389.099 16.4928 389.117 16.0098H392.521C392.503 17.0124 392.221 17.9102 391.674 18.7031C391.127 19.4961 390.398 20.125 389.486 20.5898C388.584 21.0456 387.572 21.2734 386.451 21.2734C385.312 21.2734 384.318 21.082 383.471 20.6992C382.623 20.3164 381.917 19.7832 381.352 19.0996C380.796 18.416 380.376 17.623 380.094 16.7207C379.82 15.8184 379.684 14.8522 379.684 13.8223V13.3848C379.684 12.3548 379.82 11.3887 380.094 10.4863C380.376 9.58398 380.796 8.79102 381.352 8.10742C381.917 7.42383 382.623 6.89062 383.471 6.50781C384.318 6.125 385.307 5.93359 386.438 5.93359C387.632 5.93359 388.68 6.16602 389.582 6.63086C390.493 7.0957 391.204 7.75195 391.715 8.59961C392.234 9.44727 392.503 10.4453 392.521 11.5938H389.117C389.099 11.0651 388.98 10.5911 388.762 10.1719C388.543 9.7526 388.233 9.41536 387.832 9.16016C387.431 8.90495 386.943 8.77734 386.369 8.77734C385.758 8.77734 385.248 8.90495 384.838 9.16016C384.437 9.41536 384.122 9.76628 383.895 10.2129C383.676 10.6504 383.521 11.1426 383.43 11.6895C383.348 12.2272 383.307 12.7923 383.307 13.3848V13.8223C383.307 14.4238 383.348 14.998 383.43 15.5449C383.521 16.0918 383.676 16.584 383.895 17.0215C384.122 17.4499 384.437 17.7917 384.838 18.0469C385.248 18.3021 385.768 18.4297 386.396 18.4297ZM394.285 13.7539V13.4668C394.285 12.3822 394.44 11.3841 394.75 10.4727C395.06 9.55208 395.511 8.75456 396.104 8.08008C396.696 7.4056 397.421 6.88151 398.277 6.50781C399.134 6.125 400.109 5.93359 401.203 5.93359C402.315 5.93359 403.299 6.125 404.156 6.50781C405.022 6.88151 405.751 7.4056 406.344 8.08008C406.936 8.75456 407.387 9.55208 407.697 10.4727C408.007 11.3841 408.162 12.3822 408.162 13.4668V13.7539C408.162 14.8294 408.007 15.8275 407.697 16.748C407.387 17.6595 406.936 18.457 406.344 19.1406C405.751 19.8151 405.027 20.3392 404.17 20.7129C403.313 21.0866 402.333 21.2734 401.23 21.2734C400.137 21.2734 399.157 21.0866 398.291 20.7129C397.425 20.3392 396.696 19.8151 396.104 19.1406C395.511 18.457 395.06 17.6595 394.75 16.748C394.44 15.8275 394.285 14.8294 394.285 13.7539ZM397.895 13.4668V13.7539C397.895 14.401 397.958 15.0072 398.086 15.5723C398.214 16.1374 398.41 16.6341 398.674 17.0625C398.938 17.4909 399.28 17.8281 399.699 18.0742C400.128 18.3112 400.638 18.4297 401.23 18.4297C401.814 18.4297 402.315 18.3112 402.734 18.0742C403.154 17.8281 403.495 17.4909 403.76 17.0625C404.033 16.6341 404.234 16.1374 404.361 15.5723C404.489 15.0072 404.553 14.401 404.553 13.7539V13.4668C404.553 12.8288 404.489 12.2318 404.361 11.6758C404.234 11.1107 404.033 10.6139 403.76 10.1855C403.495 9.74805 403.149 9.40625 402.721 9.16016C402.301 8.90495 401.796 8.77734 401.203 8.77734C400.62 8.77734 400.118 8.90495 399.699 9.16016C399.28 9.40625 398.938 9.74805 398.674 10.1855C398.41 10.6139 398.214 11.1107 398.086 11.6758C397.958 12.2318 397.895 12.8288 397.895 13.4668ZM419.592 17.4863V6.20703H423.229V21H419.811L419.592 17.4863ZM420.057 14.4238L421.178 14.3965C421.178 15.39 421.068 16.306 420.85 17.1445C420.631 17.9831 420.289 18.7122 419.824 19.332C419.368 19.9427 418.79 20.4212 418.088 20.7676C417.386 21.1048 416.557 21.2734 415.6 21.2734C414.87 21.2734 414.205 21.1732 413.604 20.9727C413.002 20.763 412.482 20.4395 412.045 20.002C411.617 19.5553 411.284 18.9857 411.047 18.293C410.81 17.5911 410.691 16.748 410.691 15.7637V6.20703H414.301V15.791C414.301 16.2832 414.355 16.6934 414.465 17.0215C414.583 17.3496 414.743 17.6185 414.943 17.8281C415.153 18.0286 415.395 18.1745 415.668 18.2656C415.951 18.3477 416.251 18.3887 416.57 18.3887C417.445 18.3887 418.133 18.2155 418.635 17.8691C419.145 17.5137 419.51 17.0397 419.729 16.4473C419.947 15.8457 420.057 15.1712 420.057 14.4238ZM429.969 9.36523V21H426.359V6.20703H429.75L429.969 9.36523ZM429.395 13.0703H428.328C428.337 11.9948 428.483 11.0195 428.766 10.1445C429.048 9.26953 429.445 8.51758 429.955 7.88867C430.475 7.25977 431.09 6.77669 431.801 6.43945C432.512 6.10221 433.305 5.93359 434.18 5.93359C434.891 5.93359 435.533 6.03385 436.107 6.23438C436.682 6.4349 437.174 6.75391 437.584 7.19141C438.003 7.62891 438.322 8.20312 438.541 8.91406C438.769 9.61589 438.883 10.4818 438.883 11.5117V21H435.246V11.4844C435.246 10.8099 435.146 10.2767 434.945 9.88477C434.754 9.49284 434.471 9.21484 434.098 9.05078C433.733 8.88672 433.282 8.80469 432.744 8.80469C432.188 8.80469 431.701 8.91862 431.281 9.14648C430.871 9.36523 430.525 9.67057 430.242 10.0625C429.969 10.4544 429.759 10.9056 429.613 11.416C429.467 11.9264 429.395 12.4779 429.395 13.0703ZM449.068 6.20703V8.80469H440.592V6.20703H449.068ZM442.861 2.57031H446.484V16.7344C446.484 17.1719 446.544 17.5091 446.662 17.7461C446.781 17.9831 446.958 18.1426 447.195 18.2246C447.432 18.3066 447.715 18.3477 448.043 18.3477C448.28 18.3477 448.499 18.334 448.699 18.3066C448.9 18.2793 449.068 18.252 449.205 18.2246L449.219 20.9316C448.918 21.0319 448.576 21.1139 448.193 21.1777C447.82 21.2415 447.396 21.2734 446.922 21.2734C446.111 21.2734 445.4 21.1367 444.789 20.8633C444.178 20.5807 443.704 20.1296 443.367 19.5098C443.03 18.8809 442.861 18.0514 442.861 17.0215V2.57031ZM459.623 17.8555V11.0332C459.623 10.5319 459.536 10.099 459.363 9.73438C459.19 9.36979 458.926 9.08724 458.57 8.88672C458.215 8.6862 457.764 8.58594 457.217 8.58594C456.734 8.58594 456.31 8.66797 455.945 8.83203C455.59 8.99609 455.316 9.22852 455.125 9.5293C454.934 9.82096 454.838 10.1582 454.838 10.541H451.215C451.215 9.93034 451.361 9.35156 451.652 8.80469C451.944 8.2487 452.359 7.75651 452.896 7.32812C453.443 6.89062 454.095 6.54883 454.852 6.30273C455.617 6.05664 456.474 5.93359 457.422 5.93359C458.543 5.93359 459.541 6.125 460.416 6.50781C461.3 6.88151 461.993 7.44661 462.494 8.20312C463.005 8.95964 463.26 9.91211 463.26 11.0605V17.5137C463.26 18.252 463.305 18.8854 463.396 19.4141C463.497 19.9336 463.643 20.3848 463.834 20.7676V21H460.156C459.983 20.6263 459.851 20.1523 459.76 19.5781C459.669 18.9948 459.623 18.4206 459.623 17.8555ZM460.129 11.9902L460.156 14.1367H457.873C457.308 14.1367 456.811 14.196 456.383 14.3145C455.954 14.4238 455.604 14.5879 455.33 14.8066C455.057 15.0163 454.852 15.2715 454.715 15.5723C454.578 15.8639 454.51 16.1966 454.51 16.5703C454.51 16.9349 454.592 17.263 454.756 17.5547C454.929 17.8464 455.175 18.0788 455.494 18.252C455.822 18.416 456.205 18.498 456.643 18.498C457.281 18.498 457.837 18.3704 458.311 18.1152C458.785 17.8509 459.154 17.5319 459.418 17.1582C459.682 16.7845 459.824 16.429 459.842 16.0918L460.881 17.6504C460.753 18.0241 460.562 18.4206 460.307 18.8398C460.051 19.2591 459.723 19.651 459.322 20.0156C458.921 20.3802 458.438 20.681 457.873 20.918C457.308 21.1549 456.652 21.2734 455.904 21.2734C454.947 21.2734 454.09 21.082 453.334 20.6992C452.577 20.3164 451.98 19.7923 451.543 19.127C451.105 18.4616 450.887 17.7051 450.887 16.8574C450.887 16.0736 451.033 15.3809 451.324 14.7793C451.616 14.1777 452.049 13.6719 452.623 13.2617C453.197 12.8424 453.908 12.528 454.756 12.3184C455.613 12.0996 456.592 11.9902 457.695 11.9902H460.129ZM466.5 0H470.123V17.7324L469.768 21H466.5V0ZM479.639 13.4531V13.7402C479.639 14.8431 479.516 15.8548 479.27 16.7754C479.033 17.696 478.673 18.4935 478.189 19.168C477.706 19.8333 477.105 20.3529 476.385 20.7266C475.674 21.0911 474.84 21.2734 473.883 21.2734C472.971 21.2734 472.178 21.0957 471.504 20.7402C470.839 20.3848 470.278 19.8835 469.822 19.2363C469.367 18.5801 469.002 17.8099 468.729 16.9258C468.455 16.0326 468.25 15.0573 468.113 14V13.2207C468.25 12.1543 468.455 11.179 468.729 10.2949C469.002 9.41081 469.367 8.64062 469.822 7.98438C470.278 7.32812 470.839 6.82227 471.504 6.4668C472.169 6.11133 472.953 5.93359 473.855 5.93359C474.822 5.93359 475.665 6.12044 476.385 6.49414C477.114 6.85872 477.715 7.37826 478.189 8.05273C478.673 8.7181 479.033 9.51107 479.27 10.4316C479.516 11.3431 479.639 12.3503 479.639 13.4531ZM476.016 13.7402V13.4531C476.016 12.8242 475.965 12.2318 475.865 11.6758C475.765 11.1107 475.601 10.6139 475.373 10.1855C475.145 9.75716 474.835 9.41992 474.443 9.17383C474.051 8.92773 473.559 8.80469 472.967 8.80469C472.402 8.80469 471.919 8.90039 471.518 9.0918C471.126 9.2832 470.798 9.54753 470.533 9.88477C470.278 10.222 470.077 10.6185 469.932 11.0742C469.795 11.5299 469.704 12.0221 469.658 12.5508V14.6836C469.722 15.3854 469.872 16.0189 470.109 16.584C470.346 17.14 470.697 17.582 471.162 17.9102C471.636 18.2383 472.247 18.4023 472.994 18.4023C473.577 18.4023 474.065 18.2884 474.457 18.0605C474.849 17.8236 475.159 17.4954 475.387 17.0762C475.615 16.6478 475.774 16.151 475.865 15.5859C475.965 15.0208 476.016 14.4056 476.016 13.7402ZM486.092 6.20703V21H482.469V6.20703H486.092ZM482.223 2.33789C482.223 1.80013 482.405 1.35352 482.77 0.998047C483.143 0.642578 483.645 0.464844 484.273 0.464844C484.902 0.464844 485.399 0.642578 485.764 0.998047C486.137 1.35352 486.324 1.80013 486.324 2.33789C486.324 2.86654 486.137 3.30859 485.764 3.66406C485.399 4.01953 484.902 4.19727 484.273 4.19727C483.645 4.19727 483.143 4.01953 482.77 3.66406C482.405 3.30859 482.223 2.86654 482.223 2.33789ZM493.365 0V21H489.742V0H493.365ZM500.639 6.20703V21H497.016V6.20703H500.639ZM496.77 2.33789C496.77 1.80013 496.952 1.35352 497.316 0.998047C497.69 0.642578 498.191 0.464844 498.82 0.464844C499.449 0.464844 499.946 0.642578 500.311 0.998047C500.684 1.35352 500.871 1.80013 500.871 2.33789C500.871 2.86654 500.684 3.30859 500.311 3.66406C499.946 4.01953 499.449 4.19727 498.82 4.19727C498.191 4.19727 497.69 4.01953 497.316 3.66406C496.952 3.30859 496.77 2.86654 496.77 2.33789ZM511.084 6.20703V8.80469H502.607V6.20703H511.084ZM504.877 2.57031H508.5V16.7344C508.5 17.1719 508.559 17.5091 508.678 17.7461C508.796 17.9831 508.974 18.1426 509.211 18.2246C509.448 18.3066 509.73 18.3477 510.059 18.3477C510.296 18.3477 510.514 18.334 510.715 18.3066C510.915 18.2793 511.084 18.252 511.221 18.2246L511.234 20.9316C510.934 21.0319 510.592 21.1139 510.209 21.1777C509.835 21.2415 509.411 21.2734 508.938 21.2734C508.126 21.2734 507.415 21.1367 506.805 20.8633C506.194 20.5807 505.72 20.1296 505.383 19.5098C505.046 18.8809 504.877 18.0514 504.877 17.0215V2.57031ZM517.824 19.3594L521.789 6.20703H525.658L519.725 23.2422C519.588 23.6068 519.41 24.0033 519.191 24.4316C518.982 24.86 518.699 25.2656 518.344 25.6484C517.988 26.0404 517.542 26.3594 517.004 26.6055C516.475 26.8516 515.833 26.9746 515.076 26.9746C514.748 26.9746 514.456 26.9518 514.201 26.9062C513.946 26.8607 513.677 26.8014 513.395 26.7285V24.0215C513.486 24.0306 513.59 24.0352 513.709 24.0352C513.837 24.0443 513.946 24.0488 514.037 24.0488C514.566 24.0488 515.003 23.985 515.35 23.8574C515.696 23.7389 515.974 23.543 516.184 23.2695C516.402 23.0052 516.585 22.6589 516.73 22.2305L517.824 19.3594ZM515.869 6.20703L519.219 17.1035L519.807 20.918L517.318 21.3691L511.973 6.20703H515.869ZM542.516 1.09375V21H538.77V1.09375H542.516ZM548.695 1.09375V4.06055H532.658V1.09375H548.695ZM548.148 13.7539V13.4668C548.148 12.3822 548.303 11.3841 548.613 10.4727C548.923 9.55208 549.374 8.75456 549.967 8.08008C550.559 7.4056 551.284 6.88151 552.141 6.50781C552.997 6.125 553.973 5.93359 555.066 5.93359C556.178 5.93359 557.163 6.125 558.02 6.50781C558.885 6.88151 559.615 7.4056 560.207 8.08008C560.799 8.75456 561.251 9.55208 561.561 10.4727C561.87 11.3841 562.025 12.3822 562.025 13.4668V13.7539C562.025 14.8294 561.87 15.8275 561.561 16.748C561.251 17.6595 560.799 18.457 560.207 19.1406C559.615 19.8151 558.89 20.3392 558.033 20.7129C557.176 21.0866 556.197 21.2734 555.094 21.2734C554 21.2734 553.02 21.0866 552.154 20.7129C551.288 20.3392 550.559 19.8151 549.967 19.1406C549.374 18.457 548.923 17.6595 548.613 16.748C548.303 15.8275 548.148 14.8294 548.148 13.7539ZM551.758 13.4668V13.7539C551.758 14.401 551.822 15.0072 551.949 15.5723C552.077 16.1374 552.273 16.6341 552.537 17.0625C552.801 17.4909 553.143 17.8281 553.562 18.0742C553.991 18.3112 554.501 18.4297 555.094 18.4297C555.677 18.4297 556.178 18.3112 556.598 18.0742C557.017 17.8281 557.359 17.4909 557.623 17.0625C557.896 16.6341 558.097 16.1374 558.225 15.5723C558.352 15.0072 558.416 14.401 558.416 13.7539V13.4668C558.416 12.8288 558.352 12.2318 558.225 11.6758C558.097 11.1107 557.896 10.6139 557.623 10.1855C557.359 9.74805 557.012 9.40625 556.584 9.16016C556.165 8.90495 555.659 8.77734 555.066 8.77734C554.483 8.77734 553.982 8.90495 553.562 9.16016C553.143 9.40625 552.801 9.74805 552.537 10.1855C552.273 10.6139 552.077 11.1107 551.949 11.6758C551.822 12.2318 551.758 12.8288 551.758 13.4668ZM183.615 34.0938V54H179.869V34.0938H183.615ZM189.795 34.0938V37.0605H173.758V34.0938H189.795ZM195.564 33V54H191.941V33H195.564ZM194.99 46.0703H193.924C193.924 45.0404 194.061 44.0924 194.334 43.2266C194.607 42.3607 194.995 41.6087 195.496 40.9707C195.997 40.3236 196.594 39.8223 197.287 39.4668C197.989 39.1113 198.764 38.9336 199.611 38.9336C200.34 38.9336 201.001 39.0384 201.594 39.248C202.195 39.4486 202.71 39.7721 203.139 40.2188C203.567 40.6654 203.895 41.2487 204.123 41.9688C204.36 42.6797 204.479 43.5456 204.479 44.5664V54H200.842V44.5391C200.842 43.8555 200.742 43.3177 200.541 42.9258C200.34 42.5247 200.053 42.2376 199.68 42.0645C199.315 41.8913 198.864 41.8047 198.326 41.8047C197.743 41.8047 197.242 41.9186 196.822 42.1465C196.403 42.3652 196.057 42.6706 195.783 43.0625C195.519 43.4544 195.318 43.9056 195.182 44.416C195.054 44.9264 194.99 45.4779 194.99 46.0703ZM214.309 54.2734C213.188 54.2734 212.18 54.0911 211.287 53.7266C210.394 53.362 209.633 52.8561 209.004 52.209C208.384 51.5527 207.906 50.7917 207.568 49.9258C207.24 49.0508 207.076 48.112 207.076 47.1094V46.5625C207.076 45.4232 207.24 44.3887 207.568 43.459C207.896 42.5202 208.361 41.7135 208.963 41.0391C209.564 40.3646 210.285 39.8451 211.123 39.4805C211.962 39.1159 212.887 38.9336 213.898 38.9336C214.947 38.9336 215.872 39.1113 216.674 39.4668C217.476 39.8132 218.146 40.3053 218.684 40.9434C219.221 41.5814 219.627 42.347 219.9 43.2402C220.174 44.1243 220.311 45.1042 220.311 46.1797V47.6973H208.717V45.209H216.756V44.9355C216.738 44.3613 216.628 43.8372 216.428 43.3633C216.227 42.8802 215.917 42.4974 215.498 42.2148C215.079 41.9232 214.536 41.7773 213.871 41.7773C213.333 41.7773 212.864 41.8958 212.463 42.1328C212.071 42.3607 211.743 42.6888 211.479 43.1172C211.223 43.5365 211.032 44.0378 210.904 44.6211C210.777 45.2044 210.713 45.8516 210.713 46.5625V47.1094C210.713 47.7292 210.795 48.3034 210.959 48.832C211.132 49.3607 211.383 49.821 211.711 50.2129C212.048 50.5957 212.449 50.8965 212.914 51.1152C213.388 51.3249 213.926 51.4297 214.527 51.4297C215.284 51.4297 215.967 51.2839 216.578 50.9922C217.198 50.6914 217.736 50.2493 218.191 49.666L220.01 51.5527C219.7 52.0085 219.281 52.446 218.752 52.8652C218.232 53.2845 217.604 53.6263 216.865 53.8906C216.127 54.1458 215.275 54.2734 214.309 54.2734ZM241.625 47.4512H245.385C245.285 48.7819 244.915 49.9622 244.277 50.9922C243.639 52.013 242.751 52.8151 241.611 53.3984C240.472 53.9818 239.091 54.2734 237.469 54.2734C236.22 54.2734 235.094 54.0547 234.092 53.6172C233.098 53.1706 232.246 52.5371 231.535 51.7168C230.833 50.8874 230.296 49.8939 229.922 48.7363C229.548 47.5697 229.361 46.2617 229.361 44.8125V43.2949C229.361 41.8457 229.553 40.5378 229.936 39.3711C230.318 38.2044 230.865 37.2109 231.576 36.3906C232.296 35.5612 233.158 34.9232 234.16 34.4766C235.172 34.0299 236.302 33.8066 237.551 33.8066C239.173 33.8066 240.545 34.1074 241.666 34.709C242.787 35.3014 243.658 36.1172 244.277 37.1562C244.897 38.1953 245.271 39.3893 245.398 40.7383H241.639C241.566 39.8997 241.383 39.1888 241.092 38.6055C240.809 38.0221 240.381 37.5801 239.807 37.2793C239.242 36.9694 238.49 36.8145 237.551 36.8145C236.822 36.8145 236.179 36.9512 235.623 37.2246C235.076 37.498 234.62 37.9082 234.256 38.4551C233.891 38.9928 233.618 39.6673 233.436 40.4785C233.253 41.2806 233.162 42.2103 233.162 43.2676V44.8125C233.162 45.8242 233.244 46.7311 233.408 47.5332C233.572 48.3353 233.827 49.0143 234.174 49.5703C234.52 50.1263 234.967 50.5501 235.514 50.8418C236.061 51.1335 236.712 51.2793 237.469 51.2793C238.389 51.2793 239.137 51.1335 239.711 50.8418C240.294 50.5501 240.736 50.1217 241.037 49.5566C241.347 48.9915 241.543 48.2897 241.625 47.4512ZM251.633 42.2285V54H248.023V39.207H251.441L251.633 42.2285ZM256.131 39.1113L256.076 42.4746C255.876 42.4382 255.648 42.4108 255.393 42.3926C255.146 42.3743 254.914 42.3652 254.695 42.3652C254.139 42.3652 253.652 42.4427 253.232 42.5977C252.813 42.7435 252.462 42.9577 252.18 43.2402C251.906 43.5228 251.697 43.8691 251.551 44.2793C251.405 44.6803 251.323 45.1361 251.305 45.6465L250.525 45.5508C250.525 44.612 250.621 43.7415 250.812 42.9395C251.004 42.1374 251.282 41.4355 251.646 40.834C252.011 40.2324 252.467 39.7676 253.014 39.4395C253.57 39.1022 254.208 38.9336 254.928 38.9336C255.128 38.9336 255.342 38.9518 255.57 38.9883C255.807 39.0156 255.994 39.0566 256.131 39.1113ZM262.693 52.3594L266.658 39.207H270.527L264.594 56.2422C264.457 56.6068 264.279 57.0033 264.061 57.4316C263.851 57.86 263.568 58.2656 263.213 58.6484C262.857 59.0404 262.411 59.3594 261.873 59.6055C261.344 59.8516 260.702 59.9746 259.945 59.9746C259.617 59.9746 259.326 59.9518 259.07 59.9062C258.815 59.8607 258.546 59.8014 258.264 59.7285V57.0215C258.355 57.0306 258.46 57.0352 258.578 57.0352C258.706 57.0443 258.815 57.0488 258.906 57.0488C259.435 57.0488 259.872 56.985 260.219 56.8574C260.565 56.7389 260.843 56.543 261.053 56.2695C261.271 56.0052 261.454 55.6589 261.6 55.2305L262.693 52.3594ZM260.738 39.207L264.088 50.1035L264.676 53.918L262.188 54.3691L256.842 39.207H260.738ZM275.887 42.0508V59.6875H272.264V39.207H275.613L275.887 42.0508ZM285.389 46.4531V46.7402C285.389 47.8158 285.261 48.8138 285.006 49.7344C284.76 50.6458 284.395 51.4434 283.912 52.127C283.429 52.8014 282.827 53.3301 282.107 53.7129C281.396 54.0866 280.576 54.2734 279.646 54.2734C278.735 54.2734 277.942 54.1003 277.268 53.7539C276.593 53.3984 276.023 52.8971 275.559 52.25C275.094 51.6029 274.72 50.8509 274.438 49.9941C274.164 49.1283 273.959 48.1849 273.822 47.1641V46.248C273.959 45.1634 274.164 44.179 274.438 43.2949C274.72 42.4017 275.094 41.6315 275.559 40.9844C276.023 40.3281 276.589 39.8223 277.254 39.4668C277.928 39.1113 278.717 38.9336 279.619 38.9336C280.558 38.9336 281.383 39.1113 282.094 39.4668C282.814 39.8223 283.42 40.3327 283.912 40.998C284.404 41.6634 284.773 42.4564 285.02 43.377C285.266 44.2975 285.389 45.3229 285.389 46.4531ZM281.766 46.7402V46.4531C281.766 45.7969 281.706 45.1908 281.588 44.6348C281.469 44.0697 281.287 43.5775 281.041 43.1582C280.795 42.7298 280.476 42.3971 280.084 42.1602C279.692 41.9232 279.218 41.8047 278.662 41.8047C278.106 41.8047 277.628 41.8958 277.227 42.0781C276.826 42.2604 276.497 42.5202 276.242 42.8574C275.987 43.1947 275.786 43.5957 275.641 44.0605C275.504 44.5163 275.413 45.0221 275.367 45.5781V47.8477C275.449 48.5221 275.609 49.1283 275.846 49.666C276.083 50.2038 276.429 50.6322 276.885 50.9512C277.35 51.2702 277.951 51.4297 278.689 51.4297C279.245 51.4297 279.719 51.3066 280.111 51.0605C280.503 50.8145 280.822 50.4772 281.068 50.0488C281.314 49.6113 281.492 49.11 281.602 48.5449C281.711 47.9798 281.766 47.3783 281.766 46.7402ZM295.027 39.207V41.8047H286.551V39.207H295.027ZM288.82 35.5703H292.443V49.7344C292.443 50.1719 292.503 50.5091 292.621 50.7461C292.74 50.9831 292.917 51.1426 293.154 51.2246C293.391 51.3066 293.674 51.3477 294.002 51.3477C294.239 51.3477 294.458 51.334 294.658 51.3066C294.859 51.2793 295.027 51.252 295.164 51.2246L295.178 53.9316C294.877 54.0319 294.535 54.1139 294.152 54.1777C293.779 54.2415 293.355 54.2734 292.881 54.2734C292.07 54.2734 291.359 54.1367 290.748 53.8633C290.137 53.5807 289.663 53.1296 289.326 52.5098C288.989 51.8809 288.82 51.0514 288.82 50.0215V35.5703ZM296.436 46.7539V46.4668C296.436 45.3822 296.59 44.3841 296.9 43.4727C297.21 42.5521 297.661 41.7546 298.254 41.0801C298.846 40.4056 299.571 39.8815 300.428 39.5078C301.285 39.125 302.26 38.9336 303.354 38.9336C304.465 38.9336 305.45 39.125 306.307 39.5078C307.173 39.8815 307.902 40.4056 308.494 41.0801C309.087 41.7546 309.538 42.5521 309.848 43.4727C310.158 44.3841 310.312 45.3822 310.312 46.4668V46.7539C310.312 47.8294 310.158 48.8275 309.848 49.748C309.538 50.6595 309.087 51.457 308.494 52.1406C307.902 52.8151 307.177 53.3392 306.32 53.7129C305.464 54.0866 304.484 54.2734 303.381 54.2734C302.287 54.2734 301.307 54.0866 300.441 53.7129C299.576 53.3392 298.846 52.8151 298.254 52.1406C297.661 51.457 297.21 50.6595 296.9 49.748C296.59 48.8275 296.436 47.8294 296.436 46.7539ZM300.045 46.4668V46.7539C300.045 47.401 300.109 48.0072 300.236 48.5723C300.364 49.1374 300.56 49.6341 300.824 50.0625C301.089 50.4909 301.43 50.8281 301.85 51.0742C302.278 51.3112 302.788 51.4297 303.381 51.4297C303.964 51.4297 304.465 51.3112 304.885 51.0742C305.304 50.8281 305.646 50.4909 305.91 50.0625C306.184 49.6341 306.384 49.1374 306.512 48.5723C306.639 48.0072 306.703 47.401 306.703 46.7539V46.4668C306.703 45.8288 306.639 45.2318 306.512 44.6758C306.384 44.1107 306.184 43.6139 305.91 43.1855C305.646 42.748 305.299 42.4062 304.871 42.1602C304.452 41.9049 303.946 41.7773 303.354 41.7773C302.77 41.7773 302.269 41.9049 301.85 42.1602C301.43 42.4062 301.089 42.748 300.824 43.1855C300.56 43.6139 300.364 44.1107 300.236 44.6758C300.109 45.2318 300.045 45.8288 300.045 46.4668ZM330.602 48.832C330.602 48.4492 330.542 48.1074 330.424 47.8066C330.314 47.4967 330.109 47.2188 329.809 46.9727C329.517 46.7174 329.102 46.4714 328.564 46.2344C328.036 45.9883 327.352 45.7331 326.514 45.4688C325.584 45.1771 324.718 44.849 323.916 44.4844C323.114 44.1198 322.408 43.696 321.797 43.2129C321.195 42.7298 320.726 42.1738 320.389 41.5449C320.051 40.9069 319.883 40.1686 319.883 39.3301C319.883 38.5098 320.056 37.7624 320.402 37.0879C320.758 36.4134 321.259 35.8346 321.906 35.3516C322.553 34.8594 323.314 34.4811 324.189 34.2168C325.074 33.9525 326.049 33.8203 327.115 33.8203C328.592 33.8203 329.868 34.0892 330.943 34.627C332.028 35.1647 332.867 35.8939 333.459 36.8145C334.051 37.735 334.348 38.7695 334.348 39.918H330.602C330.602 39.2982 330.469 38.7513 330.205 38.2773C329.95 37.8034 329.558 37.4297 329.029 37.1562C328.51 36.8828 327.854 36.7461 327.061 36.7461C326.295 36.7461 325.657 36.86 325.146 37.0879C324.645 37.3158 324.267 37.6257 324.012 38.0176C323.766 38.4095 323.643 38.847 323.643 39.3301C323.643 39.6947 323.729 40.0228 323.902 40.3145C324.076 40.597 324.335 40.8659 324.682 41.1211C325.028 41.3672 325.456 41.5996 325.967 41.8184C326.486 42.028 327.088 42.2376 327.771 42.4473C328.865 42.7754 329.822 43.14 330.643 43.541C331.472 43.9421 332.16 44.3978 332.707 44.9082C333.263 45.4186 333.678 45.9928 333.951 46.6309C334.234 47.2689 334.375 47.9935 334.375 48.8047C334.375 49.6615 334.206 50.4271 333.869 51.1016C333.532 51.776 333.049 52.3503 332.42 52.8242C331.791 53.2982 331.035 53.6582 330.15 53.9043C329.275 54.1504 328.296 54.2734 327.211 54.2734C326.245 54.2734 325.288 54.1458 324.34 53.8906C323.401 53.6263 322.549 53.2344 321.783 52.7148C321.018 52.1862 320.407 51.5208 319.951 50.7188C319.495 49.9076 319.268 48.9596 319.268 47.875H323.041C323.041 48.5039 323.141 49.0417 323.342 49.4883C323.551 49.9258 323.843 50.2858 324.217 50.5684C324.6 50.8418 325.046 51.0423 325.557 51.1699C326.067 51.2975 326.618 51.3613 327.211 51.3613C327.977 51.3613 328.605 51.2565 329.098 51.0469C329.599 50.8281 329.973 50.5273 330.219 50.1445C330.474 49.7617 330.602 49.3242 330.602 48.832ZM340.609 42.0508V59.6875H336.986V39.207H340.336L340.609 42.0508ZM350.111 46.4531V46.7402C350.111 47.8158 349.984 48.8138 349.729 49.7344C349.482 50.6458 349.118 51.4434 348.635 52.127C348.152 52.8014 347.55 53.3301 346.83 53.7129C346.119 54.0866 345.299 54.2734 344.369 54.2734C343.458 54.2734 342.665 54.1003 341.99 53.7539C341.316 53.3984 340.746 52.8971 340.281 52.25C339.816 51.6029 339.443 50.8509 339.16 49.9941C338.887 49.1283 338.682 48.1849 338.545 47.1641V46.248C338.682 45.1634 338.887 44.179 339.16 43.2949C339.443 42.4017 339.816 41.6315 340.281 40.9844C340.746 40.3281 341.311 39.8223 341.977 39.4668C342.651 39.1113 343.439 38.9336 344.342 38.9336C345.281 38.9336 346.105 39.1113 346.816 39.4668C347.536 39.8223 348.143 40.3327 348.635 40.998C349.127 41.6634 349.496 42.4564 349.742 43.377C349.988 44.2975 350.111 45.3229 350.111 46.4531ZM346.488 46.7402V46.4531C346.488 45.7969 346.429 45.1908 346.311 44.6348C346.192 44.0697 346.01 43.5775 345.764 43.1582C345.518 42.7298 345.199 42.3971 344.807 42.1602C344.415 41.9232 343.941 41.8047 343.385 41.8047C342.829 41.8047 342.35 41.8958 341.949 42.0781C341.548 42.2604 341.22 42.5202 340.965 42.8574C340.71 43.1947 340.509 43.5957 340.363 44.0605C340.227 44.5163 340.135 45.0221 340.09 45.5781V47.8477C340.172 48.5221 340.331 49.1283 340.568 49.666C340.805 50.2038 341.152 50.6322 341.607 50.9512C342.072 51.2702 342.674 51.4297 343.412 51.4297C343.968 51.4297 344.442 51.3066 344.834 51.0605C345.226 50.8145 345.545 50.4772 345.791 50.0488C346.037 49.6113 346.215 49.11 346.324 48.5449C346.434 47.9798 346.488 47.3783 346.488 46.7402ZM360.898 50.8555V44.0332C360.898 43.5319 360.812 43.099 360.639 42.7344C360.465 42.3698 360.201 42.0872 359.846 41.8867C359.49 41.6862 359.039 41.5859 358.492 41.5859C358.009 41.5859 357.585 41.668 357.221 41.832C356.865 41.9961 356.592 42.2285 356.4 42.5293C356.209 42.821 356.113 43.1582 356.113 43.541H352.49C352.49 42.9303 352.636 42.3516 352.928 41.8047C353.219 41.2487 353.634 40.7565 354.172 40.3281C354.719 39.8906 355.37 39.5488 356.127 39.3027C356.893 39.0566 357.749 38.9336 358.697 38.9336C359.818 38.9336 360.816 39.125 361.691 39.5078C362.576 39.8815 363.268 40.4466 363.77 41.2031C364.28 41.9596 364.535 42.9121 364.535 44.0605V50.5137C364.535 51.252 364.581 51.8854 364.672 52.4141C364.772 52.9336 364.918 53.3848 365.109 53.7676V54H361.432C361.258 53.6263 361.126 53.1523 361.035 52.5781C360.944 51.9948 360.898 51.4206 360.898 50.8555ZM361.404 44.9902L361.432 47.1367H359.148C358.583 47.1367 358.087 47.196 357.658 47.3145C357.23 47.4238 356.879 47.5879 356.605 47.8066C356.332 48.0163 356.127 48.2715 355.99 48.5723C355.854 48.8639 355.785 49.1966 355.785 49.5703C355.785 49.9349 355.867 50.263 356.031 50.5547C356.204 50.8464 356.451 51.0788 356.77 51.252C357.098 51.416 357.48 51.498 357.918 51.498C358.556 51.498 359.112 51.3704 359.586 51.1152C360.06 50.8509 360.429 50.5319 360.693 50.1582C360.958 49.7845 361.099 49.429 361.117 49.0918L362.156 50.6504C362.029 51.0241 361.837 51.4206 361.582 51.8398C361.327 52.2591 360.999 52.651 360.598 53.0156C360.197 53.3802 359.714 53.681 359.148 53.918C358.583 54.1549 357.927 54.2734 357.18 54.2734C356.223 54.2734 355.366 54.082 354.609 53.6992C353.853 53.3164 353.256 52.7923 352.818 52.127C352.381 51.4616 352.162 50.7051 352.162 49.8574C352.162 49.0736 352.308 48.3809 352.6 47.7793C352.891 47.1777 353.324 46.6719 353.898 46.2617C354.473 45.8424 355.184 45.528 356.031 45.3184C356.888 45.0996 357.868 44.9902 358.971 44.9902H361.404ZM373.859 51.4297C374.37 51.4297 374.826 51.3294 375.227 51.1289C375.628 50.9284 375.947 50.6458 376.184 50.2812C376.43 49.9167 376.562 49.4928 376.58 49.0098H379.984C379.966 50.0124 379.684 50.9102 379.137 51.7031C378.59 52.4961 377.861 53.125 376.949 53.5898C376.047 54.0456 375.035 54.2734 373.914 54.2734C372.775 54.2734 371.781 54.082 370.934 53.6992C370.086 53.3164 369.38 52.7832 368.814 52.0996C368.258 51.416 367.839 50.623 367.557 49.7207C367.283 48.8184 367.146 47.8522 367.146 46.8223V46.3848C367.146 45.3548 367.283 44.3887 367.557 43.4863C367.839 42.584 368.258 41.791 368.814 41.1074C369.38 40.4238 370.086 39.8906 370.934 39.5078C371.781 39.125 372.77 38.9336 373.9 38.9336C375.094 38.9336 376.143 39.166 377.045 39.6309C377.956 40.0957 378.667 40.752 379.178 41.5996C379.697 42.4473 379.966 43.4453 379.984 44.5938H376.58C376.562 44.0651 376.443 43.5911 376.225 43.1719C376.006 42.7526 375.696 42.4154 375.295 42.1602C374.894 41.9049 374.406 41.7773 373.832 41.7773C373.221 41.7773 372.711 41.9049 372.301 42.1602C371.9 42.4154 371.585 42.7663 371.357 43.2129C371.139 43.6504 370.984 44.1426 370.893 44.6895C370.811 45.2272 370.77 45.7923 370.77 46.3848V46.8223C370.77 47.4238 370.811 47.998 370.893 48.5449C370.984 49.0918 371.139 49.584 371.357 50.0215C371.585 50.4499 371.9 50.7917 372.301 51.0469C372.711 51.3021 373.23 51.4297 373.859 51.4297ZM389.035 54.2734C387.914 54.2734 386.907 54.0911 386.014 53.7266C385.12 53.362 384.359 52.8561 383.73 52.209C383.111 51.5527 382.632 50.7917 382.295 49.9258C381.967 49.0508 381.803 48.112 381.803 47.1094V46.5625C381.803 45.4232 381.967 44.3887 382.295 43.459C382.623 42.5202 383.088 41.7135 383.689 41.0391C384.291 40.3646 385.011 39.8451 385.85 39.4805C386.688 39.1159 387.613 38.9336 388.625 38.9336C389.673 38.9336 390.598 39.1113 391.4 39.4668C392.202 39.8132 392.872 40.3053 393.41 40.9434C393.948 41.5814 394.354 42.347 394.627 43.2402C394.9 44.1243 395.037 45.1042 395.037 46.1797V47.6973H383.443V45.209H391.482V44.9355C391.464 44.3613 391.355 43.8372 391.154 43.3633C390.954 42.8802 390.644 42.4974 390.225 42.2148C389.805 41.9232 389.263 41.7773 388.598 41.7773C388.06 41.7773 387.59 41.8958 387.189 42.1328C386.798 42.3607 386.469 42.6888 386.205 43.1172C385.95 43.5365 385.758 44.0378 385.631 44.6211C385.503 45.2044 385.439 45.8516 385.439 46.5625V47.1094C385.439 47.7292 385.521 48.3034 385.686 48.832C385.859 49.3607 386.109 49.821 386.438 50.2129C386.775 50.5957 387.176 50.8965 387.641 51.1152C388.115 51.3249 388.652 51.4297 389.254 51.4297C390.01 51.4297 390.694 51.2839 391.305 50.9922C391.924 50.6914 392.462 50.2493 392.918 49.666L394.736 51.5527C394.426 52.0085 394.007 52.446 393.479 52.8652C392.959 53.2845 392.33 53.6263 391.592 53.8906C390.854 54.1458 390.001 54.2734 389.035 54.2734Z" fill="white"/>
</svg>
