<svg width="642" height="91" viewBox="0 0 642 91" fill="none" xmlns="http://www.w3.org/2000/svg">
<g filter="url(#filter0_d_70_41)">
<path d="M28.732 7.68L44.096 55.336L59.276 7.68H75.192L51.456 73H36.644L12.724 7.68H28.732ZM131.756 59.752V73H85.8482V7.68H130.928V20.928H100.936V33.624H126.696V45.86H100.936V59.752H131.756ZM145.522 73V7.68H174.962C178.029 7.68 180.85 8.324 183.426 9.612C186.064 10.8387 188.333 12.5253 190.234 14.672C192.136 16.7573 193.608 19.1187 194.65 21.756C195.754 24.3933 196.306 27.0613 196.306 29.76C196.306 32.4587 195.877 35.0347 195.018 37.488C194.16 39.88 192.933 42.0573 191.338 44.02C189.744 45.9213 187.842 47.4853 185.634 48.712L199.986 73H183.334L170.822 51.932H160.61V73H145.522ZM160.61 38.776H174.41C175.637 38.776 176.71 38.408 177.63 37.672C178.612 36.8747 179.409 35.8013 180.022 34.452C180.636 33.1027 180.942 31.5387 180.942 29.76C180.942 27.9813 180.574 26.448 179.838 25.16C179.164 23.8107 178.305 22.768 177.262 22.032C176.22 21.296 175.116 20.928 173.95 20.928H160.61V38.776ZM211.755 73V7.68H226.843V73H211.755ZM243.937 73V7.68H288.281V20.928H259.025V35.004H283.129V47.24H259.025V73H243.937ZM311.036 7.68L325.112 36.568L339.372 7.68H355.84L332.564 50.736V73H317.568V50.552L294.66 7.68H311.036ZM389.179 73V7.68H404.267V59.752H435.915V73H389.179ZM493.503 59.752V73H447.595V7.68H492.675V20.928H462.683V33.624H488.443V45.86H462.683V59.752H493.503ZM522.357 35.648V73H507.269V7.68H519.229L549.497 46.136V7.68H564.585V73H552.257L522.357 35.648ZM620.87 26.816C620.686 26.5093 620.042 26.0493 618.938 25.436C617.834 24.7613 616.454 24.056 614.798 23.32C613.142 22.584 611.333 21.94 609.37 21.388C607.407 20.836 605.445 20.56 603.482 20.56C600.906 20.56 598.913 21.02 597.502 21.94C596.091 22.7987 595.386 24.148 595.386 25.988C595.386 27.46 595.907 28.6253 596.95 29.484C598.054 30.3427 599.618 31.1093 601.642 31.784C603.666 32.3973 606.15 33.1333 609.094 33.992C613.265 35.096 616.883 36.4453 619.95 38.04C623.017 39.5733 625.347 41.5667 626.942 44.02C628.598 46.4733 629.426 49.724 629.426 53.772C629.426 57.452 628.751 60.58 627.402 63.156C626.053 65.6707 624.213 67.7253 621.882 69.32C619.613 70.8533 617.006 71.988 614.062 72.724C611.118 73.3987 608.082 73.736 604.954 73.736C601.765 73.736 598.483 73.4293 595.11 72.816C591.798 72.1413 588.609 71.2213 585.542 70.056C582.475 68.8293 579.654 67.3573 577.078 65.64L583.702 52.484C583.947 52.7907 584.745 53.3733 586.094 54.232C587.443 55.0293 589.099 55.888 591.062 56.808C593.086 57.6667 595.325 58.4333 597.778 59.108C600.231 59.7827 602.715 60.12 605.23 60.12C607.929 60.12 609.922 59.6907 611.21 58.832C612.559 57.9733 613.234 56.7773 613.234 55.244C613.234 53.588 612.529 52.3 611.118 51.38C609.769 50.46 607.898 49.632 605.506 48.896C603.175 48.16 600.477 47.332 597.41 46.412C593.423 45.1853 590.111 43.8053 587.474 42.272C584.898 40.7387 582.966 38.868 581.678 36.66C580.451 34.452 579.838 31.692 579.838 28.38C579.838 23.78 580.911 19.916 583.058 16.788C585.266 13.5987 588.21 11.2067 591.89 9.612C595.57 7.956 599.587 7.128 603.942 7.128C607.009 7.128 609.953 7.496 612.774 8.23199C615.657 8.968 618.325 9.888 620.778 10.992C623.293 12.096 625.531 13.2 627.494 14.304L620.87 26.816Z" fill="url(#paint0_linear_70_41)"/>
</g>
<defs>
<filter id="filter0_d_70_41" x="0.723999" y="0.127991" width="640.702" height="90.608" filterUnits="userSpaceOnUse" color-interpolation-filters="sRGB">
<feFlood flood-opacity="0" result="BackgroundImageFix"/>
<feColorMatrix in="SourceAlpha" type="matrix" values="0 0 0 0 0 0 0 0 0 0 0 0 0 0 0 0 0 0 127 0" result="hardAlpha"/>
<feOffset dy="5"/>
<feGaussianBlur stdDeviation="6"/>
<feColorMatrix type="matrix" values="0 0 0 0 0.0240902 0 0 0 0 0.0207471 0 0 0 0 0.0742358 0 0 0 0.25 0"/>
<feBlend mode="normal" in2="BackgroundImageFix" result="effect1_dropShadow_70_41"/>
<feBlend mode="normal" in="SourceGraphic" in2="effect1_dropShadow_70_41" result="shape"/>
</filter>
<linearGradient id="paint0_linear_70_41" x1="615.847" y1="62.6588" x2="26.0297" y2="-48.2871" gradientUnits="userSpaceOnUse">
<stop stop-color="white"/>
<stop offset="0.497238" stop-color="#3BA0FF"/>
<stop offset="1" stop-color="#5FB2FF"/>
</linearGradient>
</defs>
</svg>
