<svg width="302" height="77" viewBox="0 0 302 77" fill="none" xmlns="http://www.w3.org/2000/svg">
<g filter="url(#filter0_d_70_42)">
<path d="M31.6484 45.4609L38.4453 17.875H42.125L42.3594 23.6875L35.0938 52H31.2031L31.6484 45.4609ZM27.3594 17.875L32.9375 45.3672V52H28.6953L20.9609 17.875H27.3594ZM49.4141 45.25L54.8984 17.875H61.3203L53.5859 52H49.3438L49.4141 45.25ZM43.8828 17.875L50.6797 45.5547L51.0781 52H47.1875L39.9453 23.6641L40.2266 17.875H43.8828ZM75.5703 52.4688C73.6484 52.4688 71.9219 52.1562 70.3906 51.5312C68.8594 50.9062 67.5547 50.0391 66.4766 48.9297C65.4141 47.8047 64.5938 46.5 64.0156 45.0156C63.4531 43.5156 63.1719 41.9062 63.1719 40.1875V39.25C63.1719 37.2969 63.4531 35.5234 64.0156 33.9297C64.5781 32.3203 65.375 30.9375 66.4062 29.7812C67.4375 28.625 68.6719 27.7344 70.1094 27.1094C71.5469 26.4844 73.1328 26.1719 74.8672 26.1719C76.6641 26.1719 78.25 26.4766 79.625 27.0859C81 27.6797 82.1484 28.5234 83.0703 29.6172C83.9922 30.7109 84.6875 32.0234 85.1562 33.5547C85.625 35.0703 85.8594 36.75 85.8594 38.5938V41.1953H65.9844V36.9297H79.7656V36.4609C79.7344 35.4766 79.5469 34.5781 79.2031 33.7656C78.8594 32.9375 78.3281 32.2812 77.6094 31.7969C76.8906 31.2969 75.9609 31.0469 74.8203 31.0469C73.8984 31.0469 73.0938 31.25 72.4062 31.6562C71.7344 32.0469 71.1719 32.6094 70.7188 33.3438C70.2812 34.0625 69.9531 34.9219 69.7344 35.9219C69.5156 36.9219 69.4062 38.0312 69.4062 39.25V40.1875C69.4062 41.25 69.5469 42.2344 69.8281 43.1406C70.125 44.0469 70.5547 44.8359 71.1172 45.5078C71.6953 46.1641 72.3828 46.6797 73.1797 47.0547C73.9922 47.4141 74.9141 47.5938 75.9453 47.5938C77.2422 47.5938 78.4141 47.3438 79.4609 46.8438C80.5234 46.3281 81.4453 45.5703 82.2266 44.5703L85.3438 47.8047C84.8125 48.5859 84.0938 49.3359 83.1875 50.0547C82.2969 50.7734 81.2188 51.3594 79.9531 51.8125C78.6875 52.25 77.2266 52.4688 75.5703 52.4688ZM96.5703 16V52H90.3594V16H96.5703ZM112.883 47.5938C113.758 47.5938 114.539 47.4219 115.227 47.0781C115.914 46.7344 116.461 46.25 116.867 45.625C117.289 45 117.516 44.2734 117.547 43.4453H123.383C123.352 45.1641 122.867 46.7031 121.93 48.0625C120.992 49.4219 119.742 50.5 118.18 51.2969C116.633 52.0781 114.898 52.4688 112.977 52.4688C111.023 52.4688 109.32 52.1406 107.867 51.4844C106.414 50.8281 105.203 49.9141 104.234 48.7422C103.281 47.5703 102.562 46.2109 102.078 44.6641C101.609 43.1172 101.375 41.4609 101.375 39.6953V38.9453C101.375 37.1797 101.609 35.5234 102.078 33.9766C102.562 32.4297 103.281 31.0703 104.234 29.8984C105.203 28.7266 106.414 27.8125 107.867 27.1562C109.32 26.5 111.016 26.1719 112.953 26.1719C115 26.1719 116.797 26.5703 118.344 27.3672C119.906 28.1641 121.125 29.2891 122 30.7422C122.891 32.1953 123.352 33.9062 123.383 35.875H117.547C117.516 34.9688 117.312 34.1562 116.938 33.4375C116.562 32.7188 116.031 32.1406 115.344 31.7031C114.656 31.2656 113.82 31.0469 112.836 31.0469C111.789 31.0469 110.914 31.2656 110.211 31.7031C109.523 32.1406 108.984 32.7422 108.594 33.5078C108.219 34.2578 107.953 35.1016 107.797 36.0391C107.656 36.9609 107.586 37.9297 107.586 38.9453V39.6953C107.586 40.7266 107.656 41.7109 107.797 42.6484C107.953 43.5859 108.219 44.4297 108.594 45.1797C108.984 45.9141 109.523 46.5 110.211 46.9375C110.914 47.375 111.805 47.5938 112.883 47.5938ZM126.406 39.5781V39.0859C126.406 37.2266 126.672 35.5156 127.203 33.9531C127.734 32.375 128.508 31.0078 129.523 29.8516C130.539 28.6953 131.781 27.7969 133.25 27.1562C134.719 26.5 136.391 26.1719 138.266 26.1719C140.172 26.1719 141.859 26.5 143.328 27.1562C144.812 27.7969 146.062 28.6953 147.078 29.8516C148.094 31.0078 148.867 32.375 149.398 33.9531C149.93 35.5156 150.195 37.2266 150.195 39.0859V39.5781C150.195 41.4219 149.93 43.1328 149.398 44.7109C148.867 46.2734 148.094 47.6406 147.078 48.8125C146.062 49.9688 144.82 50.8672 143.352 51.5078C141.883 52.1484 140.203 52.4688 138.312 52.4688C136.438 52.4688 134.758 52.1484 133.273 51.5078C131.789 50.8672 130.539 49.9688 129.523 48.8125C128.508 47.6406 127.734 46.2734 127.203 44.7109C126.672 43.1328 126.406 41.4219 126.406 39.5781ZM132.594 39.0859V39.5781C132.594 40.6875 132.703 41.7266 132.922 42.6953C133.141 43.6641 133.477 44.5156 133.93 45.25C134.383 45.9844 134.969 46.5625 135.688 46.9844C136.422 47.3906 137.297 47.5938 138.312 47.5938C139.312 47.5938 140.172 47.3906 140.891 46.9844C141.609 46.5625 142.195 45.9844 142.648 45.25C143.117 44.5156 143.461 43.6641 143.68 42.6953C143.898 41.7266 144.008 40.6875 144.008 39.5781V39.0859C144.008 37.9922 143.898 36.9688 143.68 36.0156C143.461 35.0469 143.117 34.1953 142.648 33.4609C142.195 32.7109 141.602 32.125 140.867 31.7031C140.148 31.2656 139.281 31.0469 138.266 31.0469C137.266 31.0469 136.406 31.2656 135.688 31.7031C134.969 32.125 134.383 32.7109 133.93 33.4609C133.477 34.1953 133.141 35.0469 132.922 36.0156C132.703 36.9688 132.594 37.9922 132.594 39.0859ZM160.859 31.8438V52H154.672V26.6406H160.508L160.859 31.8438ZM159.945 38.4062H158.047C158.047 36.6406 158.258 35.0156 158.68 33.5312C159.117 32.0469 159.758 30.7578 160.602 29.6641C161.445 28.5547 162.484 27.6953 163.719 27.0859C164.969 26.4766 166.414 26.1719 168.055 26.1719C169.195 26.1719 170.242 26.3438 171.195 26.6875C172.148 27.0156 172.969 27.5391 173.656 28.2578C174.359 28.9609 174.898 29.8828 175.273 31.0234C175.648 32.1484 175.836 33.5 175.836 35.0781V52H169.648V35.7109C169.648 34.5234 169.477 33.5938 169.133 32.9219C168.805 32.25 168.328 31.7812 167.703 31.5156C167.078 31.2344 166.328 31.0938 165.453 31.0938C164.484 31.0938 163.648 31.2891 162.945 31.6797C162.258 32.0547 161.688 32.5781 161.234 33.25C160.797 33.9219 160.469 34.6953 160.25 35.5703C160.047 36.4453 159.945 37.3906 159.945 38.4062ZM175.367 37.2578L172.812 37.7266C172.828 36.1328 173.047 34.6406 173.469 33.25C173.891 31.8438 174.508 30.6172 175.32 29.5703C176.148 28.5078 177.172 27.6797 178.391 27.0859C179.625 26.4766 181.047 26.1719 182.656 26.1719C183.906 26.1719 185.031 26.3516 186.031 26.7109C187.047 27.0547 187.914 27.6094 188.633 28.375C189.352 29.125 189.898 30.1016 190.273 31.3047C190.664 32.5078 190.859 33.9766 190.859 35.7109V52H184.625V35.6875C184.625 34.4531 184.453 33.5078 184.109 32.8516C183.781 32.1953 183.305 31.7422 182.68 31.4922C182.055 31.2266 181.32 31.0938 180.477 31.0938C179.617 31.0938 178.867 31.2578 178.227 31.5859C177.602 31.8984 177.07 32.3359 176.633 32.8984C176.211 33.4609 175.891 34.1172 175.672 34.8672C175.469 35.6016 175.367 36.3984 175.367 37.2578ZM207.805 52.4688C205.883 52.4688 204.156 52.1562 202.625 51.5312C201.094 50.9062 199.789 50.0391 198.711 48.9297C197.648 47.8047 196.828 46.5 196.25 45.0156C195.688 43.5156 195.406 41.9062 195.406 40.1875V39.25C195.406 37.2969 195.688 35.5234 196.25 33.9297C196.812 32.3203 197.609 30.9375 198.641 29.7812C199.672 28.625 200.906 27.7344 202.344 27.1094C203.781 26.4844 205.367 26.1719 207.102 26.1719C208.898 26.1719 210.484 26.4766 211.859 27.0859C213.234 27.6797 214.383 28.5234 215.305 29.6172C216.227 30.7109 216.922 32.0234 217.391 33.5547C217.859 35.0703 218.094 36.75 218.094 38.5938V41.1953H198.219V36.9297H212V36.4609C211.969 35.4766 211.781 34.5781 211.438 33.7656C211.094 32.9375 210.562 32.2812 209.844 31.7969C209.125 31.2969 208.195 31.0469 207.055 31.0469C206.133 31.0469 205.328 31.25 204.641 31.6562C203.969 32.0469 203.406 32.6094 202.953 33.3438C202.516 34.0625 202.188 34.9219 201.969 35.9219C201.75 36.9219 201.641 38.0312 201.641 39.25V40.1875C201.641 41.25 201.781 42.2344 202.062 43.1406C202.359 44.0469 202.789 44.8359 203.352 45.5078C203.93 46.1641 204.617 46.6797 205.414 47.0547C206.227 47.4141 207.148 47.5938 208.18 47.5938C209.477 47.5938 210.648 47.3438 211.695 46.8438C212.758 46.3281 213.68 45.5703 214.461 44.5703L217.578 47.8047C217.047 48.5859 216.328 49.3359 215.422 50.0547C214.531 50.7734 213.453 51.3594 212.188 51.8125C210.922 52.25 209.461 52.4688 207.805 52.4688ZM248.141 17.875V52H241.719V17.875H248.141ZM258.734 17.875V22.9609H231.242V17.875H258.734ZM257.797 39.5781V39.0859C257.797 37.2266 258.062 35.5156 258.594 33.9531C259.125 32.375 259.898 31.0078 260.914 29.8516C261.93 28.6953 263.172 27.7969 264.641 27.1562C266.109 26.5 267.781 26.1719 269.656 26.1719C271.562 26.1719 273.25 26.5 274.719 27.1562C276.203 27.7969 277.453 28.6953 278.469 29.8516C279.484 31.0078 280.258 32.375 280.789 33.9531C281.32 35.5156 281.586 37.2266 281.586 39.0859V39.5781C281.586 41.4219 281.32 43.1328 280.789 44.7109C280.258 46.2734 279.484 47.6406 278.469 48.8125C277.453 49.9688 276.211 50.8672 274.742 51.5078C273.273 52.1484 271.594 52.4688 269.703 52.4688C267.828 52.4688 266.148 52.1484 264.664 51.5078C263.18 50.8672 261.93 49.9688 260.914 48.8125C259.898 47.6406 259.125 46.2734 258.594 44.7109C258.062 43.1328 257.797 41.4219 257.797 39.5781ZM263.984 39.0859V39.5781C263.984 40.6875 264.094 41.7266 264.312 42.6953C264.531 43.6641 264.867 44.5156 265.32 45.25C265.773 45.9844 266.359 46.5625 267.078 46.9844C267.812 47.3906 268.688 47.5938 269.703 47.5938C270.703 47.5938 271.562 47.3906 272.281 46.9844C273 46.5625 273.586 45.9844 274.039 45.25C274.508 44.5156 274.852 43.6641 275.07 42.6953C275.289 41.7266 275.398 40.6875 275.398 39.5781V39.0859C275.398 37.9922 275.289 36.9688 275.07 36.0156C274.852 35.0469 274.508 34.1953 274.039 33.4609C273.586 32.7109 272.992 32.125 272.258 31.7031C271.539 31.2656 270.672 31.0469 269.656 31.0469C268.656 31.0469 267.797 31.2656 267.078 31.7031C266.359 32.125 265.773 32.7109 265.32 33.4609C264.867 34.1953 264.531 35.0469 264.312 36.0156C264.094 36.9688 263.984 37.9922 263.984 39.0859Z" fill="white"/>
</g>
<defs>
<filter id="filter0_d_70_42" x="0.960938" y="0" width="300.625" height="76.4688" filterUnits="userSpaceOnUse" color-interpolation-filters="sRGB">
<feFlood flood-opacity="0" result="BackgroundImageFix"/>
<feColorMatrix in="SourceAlpha" type="matrix" values="0 0 0 0 0 0 0 0 0 0 0 0 0 0 0 0 0 0 127 0" result="hardAlpha"/>
<feOffset dy="4"/>
<feGaussianBlur stdDeviation="10"/>
<feColorMatrix type="matrix" values="0 0 0 0 0.00392157 0 0 0 0 0.560784 0 0 0 0 1 0 0 0 0.15 0"/>
<feBlend mode="normal" in2="BackgroundImageFix" result="effect1_dropShadow_70_42"/>
<feBlend mode="normal" in="SourceGraphic" in2="effect1_dropShadow_70_42" result="shape"/>
</filter>
</defs>
</svg>
